# xmcd
# 
# Track frame offsets:
#     150
#     20904
#     74411
#     99182
#     110615
#     132602
#     151010
#     198260
#     211799
#     249341
#     255216
#     269249
#     319289
# 
# Disc length: 4556
# 
# Revision: 4
# Processed by: cddbd v1.5.2PL0 Copyright (c) Steve Scherf et al.
# Submitted via: fre:ac v1.0.17
# 
DISCID=b911ca0d
DTITLE=Stevie Ray Vaughan and Double Trouble - Couldn't Stand The Weather
DYEAR=1984
DGENRE=Blues Rock
TTITLE0=Testify
TTITLE1=Voodoo Child (Slight Return)
TTITLE2=The Things (That) I Used To Do
TTITLE3=Honey Bee
TTITLE4=Couldn't Stand The Weather
TTITLE5=Cold Shot
TTITLE6=Tin Pan Alley (The Roughest Place In Town)
TTITLE7=Love Struck Baby
TTITLE8=Texas Flood
TTITLE9=Band Intos/Encores
TTITLE10=Stang's Swang
TTITLE11=Lenny
TTITLE12=Pride And Joy
EXTD=2CD 2010 - digitally remastered, 2010\nCD 2 - Legacy Edition\nEpic 8 8697-55943-2 0
EXTT0=
EXTT1=Recorded Live In Montreal - The Spectrum - August 17, 1984
EXTT2=Recorded Live In Montreal - The Spectrum - August 17, 1984
EXTT3=Recorded Live In Montreal - The Spectrum - August 17, 1984
EXTT4=Recorded Live In Montreal - The Spectrum - August 17, 1984
EXTT5=Recorded Live In Montreal - The Spectrum - August 17, 1984
EXTT6=Recorded Live In Montreal - The Spectrum - August 17, 1984
EXTT7=Recorded Live In Montreal - The Spectrum - August 17, 1984
EXTT8=Recorded Live In Montreal - The Spectrum - August 17, 1984
EXTT9=Recorded Live In Montreal - The Spectrum - August 17, 1984
EXTT10=Recorded Live In Montreal - The Spectrum - August 17, 1984
EXTT11=Recorded Live In Montreal - The Spectrum - August 17, 1984
EXTT12=Recorded Live In Montreal - The Spectrum - August 17, 1984
PLAYORDER=
